<svg version="1.2" xmlns="http://www.w3.org/2000/svg" viewBox="0 0 64 64" width="64" height="64">
	<title>New Project</title>
	<style>
		.s0 { opacity: 1;fill: #fefefe } 
	</style>
	<path id="Path 0" fill-rule="evenodd" class="s0" d="m35.3 2.1c3.5-0.1 5.3 0.5 7.3 2.1 1.6 1.5 2.7 3.8 3.1 6.3 0.3 2.2 0.3 5.7-0.1 7.8-0.4 2.3-1.1 3.7-2.1 3.7-0.8 0-3.3-2.9-5.5-6.5-2.8-4.5-4.4-6.3-5.3-5.8-0.7 0.5-5.7 4-11.1 7.8-5.5 3.9-10 7.3-10.2 7.8-0.2 0.4 9.5 0.7 43.6 0.7l3 3c1.9 1.9 3 4 3 5.8 0 1.5-1.6 7-3.5 12.2-1.9 5.2-4.3 9.9-5.2 10.5-1 0.5-6.1 2-11.3 3.2-5.2 1.2-10.7 2.3-12.3 2.3-1.5 0-3.8-0.6-5.2-1.2-1.4-0.7-3.2-2.7-4-4.3-1-2.1-1.2-4.8-0.7-9.3 0.4-3.4 1.1-6.2 1.7-6.2 0.6 0 2.8 2.9 5 6.5 2.6 4.2 4.5 6.4 5.5 6.1 0.8-0.1 6.2-3.6 22.4-15.1l-21.9-0.5c-13.4-0.3-22.8-0.9-24-1.6-1.1-0.6-2.6-2.7-3.4-4.5-1.4-3.2-1.3-4 2-13.4 1.9-5.4 4.2-10.6 5.2-11.5 0.9-0.8 5.7-2.5 10.5-3.7 4.8-1.2 10.8-2.2 13.4-2.2zm4.8 7.9c0.5 0 1-0.4 1-1 0-0.5-0.5-1-1-1-0.5 0-1 0.5-1 1 0 0.6 0.5 1 1 1z"/>
</svg>